<mxfile host="app.diagrams.net" modified="2022-02-15T13:45:34.774Z" agent="5.0 (Windows NT 10.0; WOW64) AppleWebKit/537.36 (KHTML, like Gecko) Chrome/98.0.4758.80 Safari/537.36" etag="nI2vAHShdpX5yn2X_g8y" version="16.5.6" type="github">
  <diagram id="gY-3Wkkz0-fv9Eq6Wcdv" name="Page-1">
    <mxGraphModel dx="1945" dy="1714" grid="1" gridSize="10" guides="1" tooltips="1" connect="1" arrows="1" fold="1" page="1" pageScale="1" pageWidth="850" pageHeight="1100" math="0" shadow="0">
      <root>
        <mxCell id="0" />
        <mxCell id="1" parent="0" />
        <mxCell id="maHm7uyf_X9rZUe_-h6N-1" value="&lt;h1&gt;Therapy&lt;/h1&gt;&lt;div&gt;&lt;ul&gt;&lt;li&gt;I judge psychiatrists on how well they do therapy with a patient.&lt;/li&gt;&lt;li&gt;Everyone in this world is a therapist in some form or way.&lt;/li&gt;&lt;/ul&gt;&lt;/div&gt;" style="text;html=1;strokeColor=none;fillColor=none;spacing=5;spacingTop=-20;whiteSpace=wrap;overflow=hidden;rounded=0;" parent="1" vertex="1">
          <mxGeometry width="270" height="120" as="geometry" />
        </mxCell>
        <mxCell id="maHm7uyf_X9rZUe_-h6N-19" style="edgeStyle=orthogonalEdgeStyle;rounded=0;orthogonalLoop=1;jettySize=auto;html=1;exitX=0;exitY=0.5;exitDx=0;exitDy=0;entryX=0.5;entryY=0;entryDx=0;entryDy=0;fontSize=12;endArrow=none;endFill=0;" parent="1" source="maHm7uyf_X9rZUe_-h6N-3" target="maHm7uyf_X9rZUe_-h6N-4" edge="1">
          <mxGeometry relative="1" as="geometry">
            <Array as="points">
              <mxPoint x="330" y="130" />
              <mxPoint x="150" y="130" />
            </Array>
          </mxGeometry>
        </mxCell>
        <mxCell id="maHm7uyf_X9rZUe_-h6N-20" style="edgeStyle=orthogonalEdgeStyle;rounded=0;orthogonalLoop=1;jettySize=auto;html=1;exitX=0.5;exitY=1;exitDx=0;exitDy=0;fontSize=12;endArrow=none;endFill=0;" parent="1" source="maHm7uyf_X9rZUe_-h6N-3" target="maHm7uyf_X9rZUe_-h6N-13" edge="1">
          <mxGeometry relative="1" as="geometry" />
        </mxCell>
        <mxCell id="maHm7uyf_X9rZUe_-h6N-21" style="edgeStyle=orthogonalEdgeStyle;rounded=0;orthogonalLoop=1;jettySize=auto;html=1;exitX=1;exitY=0.5;exitDx=0;exitDy=0;entryX=0.5;entryY=0;entryDx=0;entryDy=0;fontSize=12;endArrow=none;endFill=0;" parent="1" source="maHm7uyf_X9rZUe_-h6N-3" target="maHm7uyf_X9rZUe_-h6N-15" edge="1">
          <mxGeometry relative="1" as="geometry" />
        </mxCell>
        <mxCell id="maHm7uyf_X9rZUe_-h6N-22" style="edgeStyle=orthogonalEdgeStyle;rounded=0;orthogonalLoop=1;jettySize=auto;html=1;exitX=1;exitY=0;exitDx=0;exitDy=0;fontSize=12;endArrow=none;endFill=0;" parent="1" source="maHm7uyf_X9rZUe_-h6N-3" target="maHm7uyf_X9rZUe_-h6N-16" edge="1">
          <mxGeometry relative="1" as="geometry">
            <Array as="points">
              <mxPoint x="443" y="80" />
              <mxPoint x="755" y="80" />
            </Array>
          </mxGeometry>
        </mxCell>
        <mxCell id="maHm7uyf_X9rZUe_-h6N-46" style="edgeStyle=orthogonalEdgeStyle;rounded=0;orthogonalLoop=1;jettySize=auto;html=1;exitX=0;exitY=1;exitDx=0;exitDy=0;entryX=1;entryY=0.5;entryDx=0;entryDy=0;fontSize=12;endArrow=none;endFill=0;" parent="1" source="maHm7uyf_X9rZUe_-h6N-3" target="maHm7uyf_X9rZUe_-h6N-42" edge="1">
          <mxGeometry relative="1" as="geometry">
            <Array as="points">
              <mxPoint x="315" y="153" />
              <mxPoint x="315" y="615" />
            </Array>
          </mxGeometry>
        </mxCell>
        <mxCell id="maHm7uyf_X9rZUe_-h6N-47" style="edgeStyle=orthogonalEdgeStyle;rounded=0;orthogonalLoop=1;jettySize=auto;html=1;exitX=1;exitY=1;exitDx=0;exitDy=0;entryX=0.5;entryY=0;entryDx=0;entryDy=0;fontSize=12;endArrow=none;endFill=0;" parent="1" source="maHm7uyf_X9rZUe_-h6N-3" target="maHm7uyf_X9rZUe_-h6N-45" edge="1">
          <mxGeometry relative="1" as="geometry">
            <Array as="points">
              <mxPoint x="495" y="153" />
            </Array>
          </mxGeometry>
        </mxCell>
        <mxCell id="maHm7uyf_X9rZUe_-h6N-3" value="Explorative" style="rhombus;whiteSpace=wrap;html=1;fillColor=#fff2cc;strokeColor=#d6b656;strokeWidth=3;fontSize=18;fontStyle=5" parent="1" vertex="1">
          <mxGeometry x="330" y="40" width="150" height="150" as="geometry" />
        </mxCell>
        <mxCell id="maHm7uyf_X9rZUe_-h6N-30" style="edgeStyle=orthogonalEdgeStyle;rounded=0;orthogonalLoop=1;jettySize=auto;html=1;exitX=0.25;exitY=1;exitDx=0;exitDy=0;entryX=0.5;entryY=0;entryDx=0;entryDy=0;fontSize=12;endArrow=none;endFill=0;" parent="1" source="maHm7uyf_X9rZUe_-h6N-4" target="maHm7uyf_X9rZUe_-h6N-9" edge="1">
          <mxGeometry relative="1" as="geometry" />
        </mxCell>
        <mxCell id="maHm7uyf_X9rZUe_-h6N-33" style="edgeStyle=orthogonalEdgeStyle;rounded=0;orthogonalLoop=1;jettySize=auto;html=1;exitX=0.75;exitY=1;exitDx=0;exitDy=0;entryX=0.5;entryY=0;entryDx=0;entryDy=0;fontSize=12;endArrow=none;endFill=0;" parent="1" source="maHm7uyf_X9rZUe_-h6N-4" target="maHm7uyf_X9rZUe_-h6N-10" edge="1">
          <mxGeometry relative="1" as="geometry" />
        </mxCell>
        <mxCell id="maHm7uyf_X9rZUe_-h6N-4" value="Trauma Informed Therapy" style="whiteSpace=wrap;html=1;aspect=fixed;rounded=0;fontSize=14;strokeWidth=3;fontStyle=1;fillColor=#ffe6cc;strokeColor=#d79b00;" parent="1" vertex="1">
          <mxGeometry x="110" y="240" width="80" height="80" as="geometry" />
        </mxCell>
        <mxCell id="maHm7uyf_X9rZUe_-h6N-32" style="edgeStyle=orthogonalEdgeStyle;rounded=0;orthogonalLoop=1;jettySize=auto;html=1;exitX=0.5;exitY=1;exitDx=0;exitDy=0;entryX=0.5;entryY=0;entryDx=0;entryDy=0;fontSize=12;endArrow=none;endFill=0;" parent="1" source="maHm7uyf_X9rZUe_-h6N-8" target="maHm7uyf_X9rZUe_-h6N-12" edge="1">
          <mxGeometry relative="1" as="geometry" />
        </mxCell>
        <mxCell id="maHm7uyf_X9rZUe_-h6N-8" value="CPT&lt;br&gt;Cognitive Processing Therapy" style="rounded=1;whiteSpace=wrap;html=1;fontSize=12;strokeWidth=2;fillColor=#ffe6cc;strokeColor=#d79b00;" parent="1" vertex="1">
          <mxGeometry x="30" y="450" width="120" height="70" as="geometry" />
        </mxCell>
        <mxCell id="maHm7uyf_X9rZUe_-h6N-31" style="edgeStyle=orthogonalEdgeStyle;rounded=0;orthogonalLoop=1;jettySize=auto;html=1;exitX=0.5;exitY=1;exitDx=0;exitDy=0;entryX=0.5;entryY=0;entryDx=0;entryDy=0;fontSize=12;endArrow=none;endFill=0;" parent="1" source="maHm7uyf_X9rZUe_-h6N-9" target="maHm7uyf_X9rZUe_-h6N-8" edge="1">
          <mxGeometry relative="1" as="geometry" />
        </mxCell>
        <mxCell id="maHm7uyf_X9rZUe_-h6N-9" value="PE&lt;br&gt;Prolonged Exposure" style="rounded=1;whiteSpace=wrap;html=1;fontSize=12;strokeWidth=2;fillColor=#ffe6cc;strokeColor=#d79b00;" parent="1" vertex="1">
          <mxGeometry x="30" y="360" width="120" height="70" as="geometry" />
        </mxCell>
        <mxCell id="maHm7uyf_X9rZUe_-h6N-34" style="edgeStyle=orthogonalEdgeStyle;rounded=0;orthogonalLoop=1;jettySize=auto;html=1;exitX=0.5;exitY=1;exitDx=0;exitDy=0;entryX=0.5;entryY=0;entryDx=0;entryDy=0;fontSize=12;endArrow=none;endFill=0;" parent="1" source="maHm7uyf_X9rZUe_-h6N-10" target="maHm7uyf_X9rZUe_-h6N-11" edge="1">
          <mxGeometry relative="1" as="geometry" />
        </mxCell>
        <mxCell id="maHm7uyf_X9rZUe_-h6N-10" value="EMDR&lt;br&gt;Eye-Movement Desensitization and Reprocessing&amp;nbsp;" style="rounded=1;whiteSpace=wrap;html=1;fontSize=12;strokeWidth=2;fillColor=#ffe6cc;strokeColor=#d79b00;" parent="1" vertex="1">
          <mxGeometry x="170" y="360" width="120" height="70" as="geometry" />
        </mxCell>
        <mxCell id="maHm7uyf_X9rZUe_-h6N-11" value="ART&lt;br&gt;Eye-Movement Desensitization and Reprocessing&amp;nbsp;" style="rounded=1;whiteSpace=wrap;html=1;fontSize=12;strokeWidth=2;fillColor=#ffe6cc;strokeColor=#d79b00;" parent="1" vertex="1">
          <mxGeometry x="170" y="450" width="120" height="70" as="geometry" />
        </mxCell>
        <mxCell id="maHm7uyf_X9rZUe_-h6N-12" value="WET&lt;br&gt;Written Exposure Therapy" style="rounded=1;whiteSpace=wrap;html=1;fontSize=12;strokeWidth=2;fillColor=#ffe6cc;strokeColor=#d79b00;" parent="1" vertex="1">
          <mxGeometry x="30" y="540" width="120" height="70" as="geometry" />
        </mxCell>
        <mxCell id="maHm7uyf_X9rZUe_-h6N-28" style="edgeStyle=orthogonalEdgeStyle;rounded=0;orthogonalLoop=1;jettySize=auto;html=1;fontSize=12;" parent="1" source="maHm7uyf_X9rZUe_-h6N-13" target="maHm7uyf_X9rZUe_-h6N-14" edge="1">
          <mxGeometry relative="1" as="geometry" />
        </mxCell>
        <mxCell id="maHm7uyf_X9rZUe_-h6N-13" value="Sleep" style="whiteSpace=wrap;html=1;aspect=fixed;rounded=0;fontSize=14;strokeWidth=3;fontStyle=1;fillColor=#e1d5e7;strokeColor=#9673a6;" parent="1" vertex="1">
          <mxGeometry x="375" y="250" width="60" height="60" as="geometry" />
        </mxCell>
        <mxCell id="maHm7uyf_X9rZUe_-h6N-53" value="" style="edgeStyle=orthogonalEdgeStyle;rounded=0;orthogonalLoop=1;jettySize=auto;html=1;fontSize=12;endArrow=none;endFill=0;" parent="1" source="maHm7uyf_X9rZUe_-h6N-14" target="maHm7uyf_X9rZUe_-h6N-13" edge="1">
          <mxGeometry relative="1" as="geometry" />
        </mxCell>
        <mxCell id="maHm7uyf_X9rZUe_-h6N-14" value="CBTi&lt;br&gt;Cognitive Behavioral Therapy - Insomnia" style="rounded=1;whiteSpace=wrap;html=1;fontSize=12;strokeWidth=2;fillColor=#e1d5e7;strokeColor=#9673a6;" parent="1" vertex="1">
          <mxGeometry x="345" y="360" width="120" height="70" as="geometry" />
        </mxCell>
        <mxCell id="maHm7uyf_X9rZUe_-h6N-24" style="edgeStyle=orthogonalEdgeStyle;rounded=0;orthogonalLoop=1;jettySize=auto;html=1;entryX=0;entryY=0.5;entryDx=0;entryDy=0;fontSize=12;" parent="1" source="maHm7uyf_X9rZUe_-h6N-15" target="maHm7uyf_X9rZUe_-h6N-16" edge="1">
          <mxGeometry relative="1" as="geometry">
            <Array as="points">
              <mxPoint x="680" y="285" />
              <mxPoint x="680" y="285" />
            </Array>
          </mxGeometry>
        </mxCell>
        <mxCell id="maHm7uyf_X9rZUe_-h6N-39" style="edgeStyle=orthogonalEdgeStyle;rounded=0;orthogonalLoop=1;jettySize=auto;html=1;exitX=0.5;exitY=1;exitDx=0;exitDy=0;entryX=0.5;entryY=0;entryDx=0;entryDy=0;fontSize=12;endArrow=none;endFill=0;" parent="1" source="maHm7uyf_X9rZUe_-h6N-15" target="maHm7uyf_X9rZUe_-h6N-17" edge="1">
          <mxGeometry relative="1" as="geometry" />
        </mxCell>
        <mxCell id="maHm7uyf_X9rZUe_-h6N-15" value="Depression" style="whiteSpace=wrap;html=1;aspect=fixed;rounded=0;fontSize=14;strokeWidth=3;fontStyle=1;fillColor=#ffcccc;strokeColor=#36393d;" parent="1" vertex="1">
          <mxGeometry x="540" y="240" width="90" height="90" as="geometry" />
        </mxCell>
        <mxCell id="maHm7uyf_X9rZUe_-h6N-26" style="edgeStyle=orthogonalEdgeStyle;rounded=0;orthogonalLoop=1;jettySize=auto;html=1;fontSize=12;" parent="1" source="maHm7uyf_X9rZUe_-h6N-16" target="maHm7uyf_X9rZUe_-h6N-15" edge="1">
          <mxGeometry relative="1" as="geometry" />
        </mxCell>
        <mxCell id="maHm7uyf_X9rZUe_-h6N-38" style="edgeStyle=orthogonalEdgeStyle;rounded=0;orthogonalLoop=1;jettySize=auto;html=1;exitX=0.5;exitY=1;exitDx=0;exitDy=0;entryX=0.5;entryY=0;entryDx=0;entryDy=0;fontSize=12;endArrow=none;endFill=0;" parent="1" source="maHm7uyf_X9rZUe_-h6N-16" target="maHm7uyf_X9rZUe_-h6N-23" edge="1">
          <mxGeometry relative="1" as="geometry" />
        </mxCell>
        <mxCell id="maHm7uyf_X9rZUe_-h6N-16" value="Anxiety" style="whiteSpace=wrap;html=1;aspect=fixed;rounded=0;fontSize=14;strokeWidth=3;fontStyle=1;fillColor=#ffff88;strokeColor=#36393d;" parent="1" vertex="1">
          <mxGeometry x="710" y="240" width="90" height="90" as="geometry" />
        </mxCell>
        <mxCell id="maHm7uyf_X9rZUe_-h6N-40" style="edgeStyle=orthogonalEdgeStyle;rounded=0;orthogonalLoop=1;jettySize=auto;html=1;exitX=0.5;exitY=1;exitDx=0;exitDy=0;fontSize=12;endArrow=none;endFill=0;" parent="1" source="maHm7uyf_X9rZUe_-h6N-17" target="maHm7uyf_X9rZUe_-h6N-36" edge="1">
          <mxGeometry relative="1" as="geometry" />
        </mxCell>
        <mxCell id="maHm7uyf_X9rZUe_-h6N-17" value="CBTd&lt;br&gt;Cognitive Behavioral Therapy - Depression" style="rounded=1;whiteSpace=wrap;html=1;fontSize=12;strokeWidth=2;fillColor=#ffcccc;strokeColor=#36393d;" parent="1" vertex="1">
          <mxGeometry x="525" y="360" width="120" height="70" as="geometry" />
        </mxCell>
        <mxCell id="maHm7uyf_X9rZUe_-h6N-18" value="&lt;span style=&quot;font-size: 18px ; font-weight: 700&quot;&gt;Supportive&lt;/span&gt;" style="ellipse;shape=cloud;whiteSpace=wrap;html=1;rounded=0;fontSize=12;strokeWidth=2;fillColor=#d5e8d4;strokeColor=#82b366;" parent="1" vertex="1">
          <mxGeometry x="645" y="-60" width="170" height="110" as="geometry" />
        </mxCell>
        <mxCell id="maHm7uyf_X9rZUe_-h6N-23" value="ACT&lt;br&gt;Acceptance Commitment Therapy" style="rounded=1;whiteSpace=wrap;html=1;fontSize=12;strokeWidth=2;fillColor=#ffff88;strokeColor=#36393d;" parent="1" vertex="1">
          <mxGeometry x="695" y="360" width="120" height="70" as="geometry" />
        </mxCell>
        <mxCell id="maHm7uyf_X9rZUe_-h6N-35" value="DBT&lt;br&gt;Dialectical Behavioral Therapy" style="rounded=1;whiteSpace=wrap;html=1;fontSize=12;strokeWidth=2;fillColor=#bac8d3;strokeColor=#23445d;" parent="1" vertex="1">
          <mxGeometry x="405" y="670" width="120" height="70" as="geometry" />
        </mxCell>
        <mxCell id="maHm7uyf_X9rZUe_-h6N-36" value="BA?&lt;br&gt;Behavioral Activation" style="rounded=1;whiteSpace=wrap;html=1;fontSize=12;strokeWidth=2;fillColor=#ffcccc;strokeColor=#36393d;" parent="1" vertex="1">
          <mxGeometry x="525" y="450" width="120" height="70" as="geometry" />
        </mxCell>
        <mxCell id="maHm7uyf_X9rZUe_-h6N-50" style="edgeStyle=orthogonalEdgeStyle;rounded=0;orthogonalLoop=1;jettySize=auto;html=1;exitX=0.25;exitY=1;exitDx=0;exitDy=0;entryX=1;entryY=0.5;entryDx=0;entryDy=0;fontSize=12;endArrow=none;endFill=0;" parent="1" source="maHm7uyf_X9rZUe_-h6N-42" target="maHm7uyf_X9rZUe_-h6N-43" edge="1">
          <mxGeometry relative="1" as="geometry" />
        </mxCell>
        <mxCell id="maHm7uyf_X9rZUe_-h6N-51" style="edgeStyle=orthogonalEdgeStyle;rounded=0;orthogonalLoop=1;jettySize=auto;html=1;exitX=0.75;exitY=1;exitDx=0;exitDy=0;entryX=1;entryY=0.5;entryDx=0;entryDy=0;fontSize=12;endArrow=none;endFill=0;" parent="1" source="maHm7uyf_X9rZUe_-h6N-42" target="maHm7uyf_X9rZUe_-h6N-49" edge="1">
          <mxGeometry relative="1" as="geometry" />
        </mxCell>
        <mxCell id="maHm7uyf_X9rZUe_-h6N-42" value="Family" style="whiteSpace=wrap;html=1;aspect=fixed;rounded=0;fontSize=14;strokeWidth=3;fontStyle=1;fillColor=#b0e3e6;strokeColor=#0e8088;" parent="1" vertex="1">
          <mxGeometry x="180" y="580" width="70" height="70" as="geometry" />
        </mxCell>
        <mxCell id="maHm7uyf_X9rZUe_-h6N-43" value="Gottman Method Couple&#39;s Therapy" style="rounded=1;whiteSpace=wrap;html=1;fontSize=12;strokeWidth=2;fillColor=#b0e3e6;strokeColor=#0e8088;" parent="1" vertex="1">
          <mxGeometry x="40" y="650" width="120" height="70" as="geometry" />
        </mxCell>
        <mxCell id="maHm7uyf_X9rZUe_-h6N-52" style="edgeStyle=orthogonalEdgeStyle;rounded=0;orthogonalLoop=1;jettySize=auto;html=1;entryX=0;entryY=1;entryDx=0;entryDy=0;fontSize=12;endArrow=none;endFill=0;" parent="1" source="maHm7uyf_X9rZUe_-h6N-44" target="maHm7uyf_X9rZUe_-h6N-3" edge="1">
          <mxGeometry relative="1" as="geometry">
            <Array as="points">
              <mxPoint x="330" y="153" />
            </Array>
          </mxGeometry>
        </mxCell>
        <mxCell id="maHm7uyf_X9rZUe_-h6N-58" style="edgeStyle=orthogonalEdgeStyle;rounded=0;orthogonalLoop=1;jettySize=auto;html=1;exitX=0.25;exitY=1;exitDx=0;exitDy=0;entryX=0.5;entryY=0;entryDx=0;entryDy=0;fontSize=12;endArrow=none;endFill=0;" parent="1" source="maHm7uyf_X9rZUe_-h6N-44" target="maHm7uyf_X9rZUe_-h6N-56" edge="1">
          <mxGeometry relative="1" as="geometry" />
        </mxCell>
        <mxCell id="maHm7uyf_X9rZUe_-h6N-59" style="edgeStyle=orthogonalEdgeStyle;rounded=0;orthogonalLoop=1;jettySize=auto;html=1;entryX=0.5;entryY=0;entryDx=0;entryDy=0;fontSize=12;endArrow=none;endFill=0;" parent="1" source="maHm7uyf_X9rZUe_-h6N-44" target="maHm7uyf_X9rZUe_-h6N-57" edge="1">
          <mxGeometry relative="1" as="geometry" />
        </mxCell>
        <mxCell id="maHm7uyf_X9rZUe_-h6N-61" style="edgeStyle=orthogonalEdgeStyle;rounded=0;orthogonalLoop=1;jettySize=auto;html=1;exitX=0.75;exitY=1;exitDx=0;exitDy=0;entryX=0.5;entryY=0;entryDx=0;entryDy=0;fontSize=12;endArrow=none;endFill=0;" parent="1" source="maHm7uyf_X9rZUe_-h6N-44" target="maHm7uyf_X9rZUe_-h6N-60" edge="1">
          <mxGeometry relative="1" as="geometry" />
        </mxCell>
        <mxCell id="maHm7uyf_X9rZUe_-h6N-44" value="Group" style="whiteSpace=wrap;html=1;aspect=fixed;rounded=0;fontSize=14;strokeWidth=3;fontStyle=1;fillColor=#cce5ff;strokeColor=#36393d;" parent="1" vertex="1">
          <mxGeometry x="290" y="670" width="80" height="80" as="geometry" />
        </mxCell>
        <mxCell id="maHm7uyf_X9rZUe_-h6N-48" style="edgeStyle=orthogonalEdgeStyle;rounded=0;orthogonalLoop=1;jettySize=auto;html=1;exitX=0.5;exitY=1;exitDx=0;exitDy=0;entryX=0.5;entryY=0;entryDx=0;entryDy=0;fontSize=12;endArrow=none;endFill=0;" parent="1" source="maHm7uyf_X9rZUe_-h6N-45" target="maHm7uyf_X9rZUe_-h6N-35" edge="1">
          <mxGeometry relative="1" as="geometry" />
        </mxCell>
        <mxCell id="YQf44TG6ToDNwpZIM07w-4" style="edgeStyle=orthogonalEdgeStyle;rounded=0;orthogonalLoop=1;jettySize=auto;html=1;exitX=1;exitY=1;exitDx=0;exitDy=0;entryX=0.5;entryY=0;entryDx=0;entryDy=0;fontSize=12;endArrow=none;endFill=0;" edge="1" parent="1" source="maHm7uyf_X9rZUe_-h6N-45" target="YQf44TG6ToDNwpZIM07w-3">
          <mxGeometry relative="1" as="geometry" />
        </mxCell>
        <mxCell id="maHm7uyf_X9rZUe_-h6N-45" value="Personality (Cluster B)" style="whiteSpace=wrap;html=1;aspect=fixed;rounded=0;fontSize=14;strokeWidth=3;fontStyle=1;fillColor=#bac8d3;strokeColor=#23445d;" parent="1" vertex="1">
          <mxGeometry x="450" y="560" width="90" height="90" as="geometry" />
        </mxCell>
        <mxCell id="maHm7uyf_X9rZUe_-h6N-49" value="Integrative Behavioral Couple Therapy" style="rounded=1;whiteSpace=wrap;html=1;fontSize=12;strokeWidth=2;fillColor=#b0e3e6;strokeColor=#0e8088;" parent="1" vertex="1">
          <mxGeometry x="30" y="740" width="140" height="70" as="geometry" />
        </mxCell>
        <mxCell id="maHm7uyf_X9rZUe_-h6N-56" value="AA&lt;br&gt;Alcoholics Anonymous" style="rounded=1;whiteSpace=wrap;html=1;fontSize=12;strokeWidth=2;fillColor=#cce5ff;strokeColor=#36393d;" parent="1" vertex="1">
          <mxGeometry x="200" y="800" width="120" height="70" as="geometry" />
        </mxCell>
        <mxCell id="maHm7uyf_X9rZUe_-h6N-57" value="Interpersonal" style="rounded=1;whiteSpace=wrap;html=1;fontSize=12;strokeWidth=2;fillColor=#cce5ff;strokeColor=#36393d;" parent="1" vertex="1">
          <mxGeometry x="280" y="920" width="100" height="40" as="geometry" />
        </mxCell>
        <mxCell id="maHm7uyf_X9rZUe_-h6N-60" value="T Groups/&lt;br&gt;Process" style="rounded=1;whiteSpace=wrap;html=1;fontSize=12;strokeWidth=2;fillColor=#cce5ff;strokeColor=#36393d;" parent="1" vertex="1">
          <mxGeometry x="365" y="860" width="100" height="40" as="geometry" />
        </mxCell>
        <mxCell id="YQf44TG6ToDNwpZIM07w-1" value="Psychodynamic Therapy" style="rounded=1;whiteSpace=wrap;html=1;fontSize=12;strokeWidth=2;fillColor=#bac8d3;strokeColor=#23445d;" vertex="1" parent="1">
          <mxGeometry x="500" y="860" width="120" height="70" as="geometry" />
        </mxCell>
        <mxCell id="YQf44TG6ToDNwpZIM07w-6" style="edgeStyle=orthogonalEdgeStyle;rounded=0;orthogonalLoop=1;jettySize=auto;html=1;exitX=0.5;exitY=1;exitDx=0;exitDy=0;entryX=0.5;entryY=0;entryDx=0;entryDy=0;fontSize=12;endArrow=none;endFill=0;" edge="1" parent="1" source="YQf44TG6ToDNwpZIM07w-3" target="YQf44TG6ToDNwpZIM07w-1">
          <mxGeometry relative="1" as="geometry" />
        </mxCell>
        <mxCell id="YQf44TG6ToDNwpZIM07w-3" value="Psychoanalytics Therapy" style="rounded=1;whiteSpace=wrap;html=1;fontSize=12;strokeWidth=2;fillColor=#bac8d3;strokeColor=#23445d;" vertex="1" parent="1">
          <mxGeometry x="500" y="760" width="120" height="70" as="geometry" />
        </mxCell>
        <mxCell id="YQf44TG6ToDNwpZIM07w-9" value="&lt;h1&gt;Lists of Therapies&lt;/h1&gt;&lt;p&gt;&lt;/p&gt;&lt;ul class=&quot;doc&quot; style=&quot;box-sizing: border-box ; margin: 0px 0px 20px ; color: rgb(51 , 51 , 51) ; font-family: &amp;#34;roboto&amp;#34; , sans-serif ; font-size: 14px ; font-style: normal ; font-weight: 400 ; letter-spacing: normal ; text-indent: 0px ; text-transform: none ; word-spacing: 0px ; background-color: rgb(255 , 255 , 255)&quot;&gt;&lt;li class=&quot;doc&quot; style=&quot;box-sizing: border-box ; margin: 0px&quot;&gt;Adlerian therapy&lt;/li&gt;&lt;li class=&quot;doc&quot; style=&quot;box-sizing: border-box ; margin: 0px&quot;&gt;Analytical psychology&lt;/li&gt;&lt;li class=&quot;doc&quot; style=&quot;box-sizing: border-box ; margin: 0px&quot;&gt;Art Therapy&lt;/li&gt;&lt;li class=&quot;doc&quot; style=&quot;box-sizing: border-box ; margin: 0px&quot;&gt;Autogenic psychotherapy&lt;/li&gt;&lt;li class=&quot;doc&quot; style=&quot;box-sizing: border-box ; margin: 0px&quot;&gt;Behavior therapy&lt;/li&gt;&lt;li class=&quot;doc&quot; style=&quot;box-sizing: border-box ; margin: 0px&quot;&gt;Biodynamic psychotherapy&lt;/li&gt;&lt;li class=&quot;doc&quot; style=&quot;box-sizing: border-box ; margin: 0px&quot;&gt;Bioenergetic analysis&lt;/li&gt;&lt;li class=&quot;doc&quot; style=&quot;box-sizing: border-box ; margin: 0px&quot;&gt;Biosynthesis&lt;/li&gt;&lt;li class=&quot;doc&quot; style=&quot;box-sizing: border-box ; margin: 0px&quot;&gt;Brief therapy&lt;/li&gt;&lt;li class=&quot;doc&quot; style=&quot;box-sizing: border-box ; margin: 0px&quot;&gt;Classical Adlerian Psychotherapy&lt;/li&gt;&lt;li class=&quot;doc&quot; style=&quot;box-sizing: border-box ; margin: 0px&quot;&gt;Co-Counselling&lt;/li&gt;&lt;li class=&quot;doc&quot; style=&quot;box-sizing: border-box ; margin: 0px&quot;&gt;Cognitive analytic psychotherapy&lt;/li&gt;&lt;li class=&quot;doc&quot; style=&quot;box-sizing: border-box ; margin: 0px&quot;&gt;Cognitive behavioural psychotherapy&lt;/li&gt;&lt;li class=&quot;doc&quot; style=&quot;box-sizing: border-box ; margin: 0px&quot;&gt;Concentrative movement therapy&lt;/li&gt;&lt;li class=&quot;doc&quot; style=&quot;box-sizing: border-box ; margin: 0px&quot;&gt;Contemplative Psychotherapy&lt;/li&gt;&lt;li class=&quot;doc&quot; style=&quot;box-sizing: border-box ; margin: 0px&quot;&gt;Core process psychotherapy&lt;/li&gt;&lt;li class=&quot;doc&quot; style=&quot;box-sizing: border-box ; margin: 0px&quot;&gt;Daseins analytic psychotherapy&lt;/li&gt;&lt;li class=&quot;doc&quot; style=&quot;box-sizing: border-box ; margin: 0px&quot;&gt;Depth Psychology&lt;/li&gt;&lt;li class=&quot;doc&quot; style=&quot;box-sizing: border-box ; margin: 0px&quot;&gt;Dialectical behavior therapy&lt;/li&gt;&lt;li class=&quot;doc&quot; style=&quot;box-sizing: border-box ; margin: 0px&quot;&gt;Emotional Freedom Techniques (EFT)&lt;/li&gt;&lt;li class=&quot;doc&quot; style=&quot;box-sizing: border-box ; margin: 0px&quot;&gt;Encounter groups&lt;/li&gt;&lt;li class=&quot;doc&quot; style=&quot;box-sizing: border-box ; margin: 0px&quot;&gt;Eye Movement Desensitisation and Reprocessing (EMDR)&lt;/li&gt;&lt;li class=&quot;doc&quot; style=&quot;box-sizing: border-box ; margin: 0px&quot;&gt;Existential analysis&lt;/li&gt;&lt;li class=&quot;doc&quot; style=&quot;box-sizing: border-box ; margin: 0px&quot;&gt;Family systems therapy&lt;/li&gt;&lt;li class=&quot;doc&quot; style=&quot;box-sizing: border-box ; margin: 0px&quot;&gt;Feminist therapy&lt;/li&gt;&lt;li class=&quot;doc&quot; style=&quot;box-sizing: border-box ; margin: 0px&quot;&gt;Focusing&lt;/li&gt;&lt;li class=&quot;doc&quot; style=&quot;box-sizing: border-box ; margin: 0px&quot;&gt;Freudian psychotherapy&lt;/li&gt;&lt;li class=&quot;doc&quot; style=&quot;box-sizing: border-box ; margin: 0px&quot;&gt;Gestalt therapy&lt;/li&gt;&lt;li class=&quot;doc&quot; style=&quot;box-sizing: border-box ; margin: 0px&quot;&gt;Gestalt Theoretical Psychotherapy&lt;/li&gt;&lt;li class=&quot;doc&quot; style=&quot;box-sizing: border-box ; margin: 0px&quot;&gt;Group therapy&lt;/li&gt;&lt;li class=&quot;doc&quot; style=&quot;box-sizing: border-box ; margin: 0px&quot;&gt;Holotropic Breathwork&lt;/li&gt;&lt;li class=&quot;doc&quot; style=&quot;box-sizing: border-box ; margin: 0px&quot;&gt;Humanistic psychology&lt;/li&gt;&lt;li class=&quot;doc&quot; style=&quot;box-sizing: border-box ; margin: 0px&quot;&gt;Hypnotherapy&lt;/li&gt;&lt;li class=&quot;doc&quot; style=&quot;box-sizing: border-box ; margin: 0px&quot;&gt;Integrative Psychotherapy&lt;/li&gt;&lt;li class=&quot;doc&quot; style=&quot;box-sizing: border-box ; margin: 0px&quot;&gt;Internal Family Systems Model&lt;/li&gt;&lt;li class=&quot;doc&quot; style=&quot;box-sizing: border-box ; margin: 0px&quot;&gt;Jungian psychotherapy&lt;/li&gt;&lt;li class=&quot;doc&quot; style=&quot;box-sizing: border-box ; margin: 0px&quot;&gt;Logotherapy&lt;/li&gt;&lt;li class=&quot;doc&quot; style=&quot;box-sizing: border-box ; margin: 0px&quot;&gt;Multimodal Therapy&lt;/li&gt;&lt;li class=&quot;doc&quot; style=&quot;box-sizing: border-box ; margin: 0px&quot;&gt;Narrative Therapy&lt;/li&gt;&lt;li class=&quot;doc&quot; style=&quot;box-sizing: border-box ; margin: 0px&quot;&gt;Neuro-linguistic programming (NLP)&lt;/li&gt;&lt;li class=&quot;doc&quot; style=&quot;box-sizing: border-box ; margin: 0px&quot;&gt;Object relations theory&lt;/li&gt;&lt;li class=&quot;doc&quot; style=&quot;box-sizing: border-box ; margin: 0px&quot;&gt;Personal construct psychology (PCP)&lt;/li&gt;&lt;li class=&quot;doc&quot; style=&quot;box-sizing: border-box ; margin: 0px&quot;&gt;Positive psychotherapy&lt;/li&gt;&lt;li class=&quot;doc&quot; style=&quot;box-sizing: border-box ; margin: 0px&quot;&gt;Postural Integration&lt;/li&gt;&lt;li class=&quot;doc&quot; style=&quot;box-sizing: border-box ; margin: 0px&quot;&gt;Primal integration&lt;/li&gt;&lt;li class=&quot;doc&quot; style=&quot;box-sizing: border-box ; margin: 0px&quot;&gt;Process Oriented Psychology&lt;/li&gt;&lt;li class=&quot;doc&quot; style=&quot;box-sizing: border-box ; margin: 0px&quot;&gt;Primal therapy&lt;/li&gt;&lt;li class=&quot;doc&quot; style=&quot;box-sizing: border-box ; margin: 0px&quot;&gt;Provocative therapy&lt;/li&gt;&lt;li class=&quot;doc&quot; style=&quot;box-sizing: border-box ; margin: 0px&quot;&gt;Psychedelic psychotherapy&lt;/li&gt;&lt;li class=&quot;doc&quot; style=&quot;box-sizing: border-box ; margin: 0px&quot;&gt;Psychoanalysis&lt;/li&gt;&lt;li class=&quot;doc&quot; style=&quot;box-sizing: border-box ; margin: 0px&quot;&gt;Psychodrama&lt;/li&gt;&lt;li class=&quot;doc&quot; style=&quot;box-sizing: border-box ; margin: 0px&quot;&gt;Psychodynamic psychotherapy&lt;/li&gt;&lt;li class=&quot;doc&quot; style=&quot;box-sizing: border-box ; margin: 0px&quot;&gt;Psycho-Organic analysis&lt;/li&gt;&lt;li class=&quot;doc&quot; style=&quot;box-sizing: border-box ; margin: 0px&quot;&gt;Psychosynthesis&lt;/li&gt;&lt;li class=&quot;doc&quot; style=&quot;box-sizing: border-box ; margin: 0px&quot;&gt;Pulsing (bodywork)&lt;/li&gt;&lt;li class=&quot;doc&quot; style=&quot;box-sizing: border-box ; margin: 0px&quot;&gt;Rational emotive behaviour psychotherapy&lt;/li&gt;&lt;li class=&quot;doc&quot; style=&quot;box-sizing: border-box ; margin: 0px&quot;&gt;Re-evaluation Counseling&lt;/li&gt;&lt;li class=&quot;doc&quot; style=&quot;box-sizing: border-box ; margin: 0px&quot;&gt;Reality therapy&lt;/li&gt;&lt;li class=&quot;doc&quot; style=&quot;box-sizing: border-box ; margin: 0px&quot;&gt;Reichian psychotherapy&lt;/li&gt;&lt;li class=&quot;doc&quot; style=&quot;box-sizing: border-box ; margin: 0px&quot;&gt;Rogersian (or Rogerian) psychotherapy&lt;/li&gt;&lt;li class=&quot;doc&quot; style=&quot;box-sizing: border-box ; margin: 0px&quot;&gt;Rolfing&lt;/li&gt;&lt;li class=&quot;doc&quot; style=&quot;box-sizing: border-box ; margin: 0px&quot;&gt;Sophia analysis&lt;/li&gt;&lt;li class=&quot;doc&quot; style=&quot;box-sizing: border-box ; margin: 0px&quot;&gt;Self Relationship (or Sponsorship)&lt;/li&gt;&lt;li class=&quot;doc&quot; style=&quot;box-sizing: border-box ; margin: 0px&quot;&gt;Systemic therapy&lt;/li&gt;&lt;li class=&quot;doc&quot; style=&quot;box-sizing: border-box ; margin: 0px&quot;&gt;SHEN Therapy&lt;/li&gt;&lt;li class=&quot;doc&quot; style=&quot;box-sizing: border-box ; margin: 0px&quot;&gt;T Groups&lt;/li&gt;&lt;li class=&quot;doc&quot; style=&quot;box-sizing: border-box ; margin: 0px&quot;&gt;Transactional analysis (TA)&lt;/li&gt;&lt;li class=&quot;doc&quot; style=&quot;box-sizing: border-box ; margin: 0px&quot;&gt;Transpersonal psychology&lt;/li&gt;&lt;/ul&gt;" style="text;html=1;strokeColor=none;fillColor=none;spacing=5;spacingTop=-20;whiteSpace=wrap;overflow=hidden;rounded=0;fontSize=12;" vertex="1" parent="1">
          <mxGeometry x="-310" width="220" height="1530" as="geometry" />
        </mxCell>
      </root>
    </mxGraphModel>
  </diagram>
</mxfile>
